<?xml version="1.0" encoding="UTF-8" standalone="no"?><!DOCTYPE svg PUBLIC "-//W3C//DTD SVG 1.1//EN" "http://www.w3.org/Graphics/SVG/1.1/DTD/svg11.dtd"><svg width="100%" height="100%" viewBox="0 0 1157 1157" version="1.1" xmlns="http://www.w3.org/2000/svg" xmlns:xlink="http://www.w3.org/1999/xlink" xml:space="preserve" xmlns:serif="http://www.serif.com/" style="fill-rule:evenodd;clip-rule:evenodd;stroke-linejoin:round;stroke-miterlimit:2;"><g id="ROUNDED_squared"><rect x="-0" y="-0" width="1157" height="1157" style="fill:#4a6527;"/><g id="BUBBLE-n-BULB" serif:id="BUBBLE n BULB"><path id="BUBBLE" d="M251.547,267.517c10.709,-4.674 22.61,-9.72 45.385,-10.119c9.372,-0.164 558.182,-0.184 567.382,-0.083c52.195,0.575 111.205,42.102 111.025,117.994c-0.039,16.462 0.105,331.207 0.03,334.752c-1.377,65.633 -50.557,104.55 -98.573,111.209c-15.746,2.184 -367.892,0.194 -382.414,1.165c-3.381,0.226 -36.264,30.923 -133.075,115.349c-37.718,32.893 -37.932,33.619 -38.951,32.852c-0.271,-0.204 -0.853,-0.31 -0.474,-145.96c0.01,-4.026 -7.215,-2.542 -14.738,-2.479c-6.418,0.054 -49.255,0.412 -76.933,-22.763c-16.405,-13.735 -43.65,-38.671 -45.456,-89.374c-0.264,-7.418 -0.119,-285.004 -0.106,-309.787c0.017,-33.107 -6.041,-96.229 66.898,-132.756Z" style="fill:#ccd688;"/><g id="BULB"><path id="BULB-BOTTOM" serif:id="BULB BOTTOM" d="M638.152,704.253c-7.94,15.001 -11.903,11.483 -23.665,23.788c-13.327,13.942 -55.223,16.391 -72.123,-3.498c-7.448,-8.766 -21.763,-9.049 -22.059,-33.765c-0.329,-27.411 -1.522,-39.425 16.06,-39.454c87.853,-0.141 88.044,-1.405 95.327,0.859c10.244,3.185 8.321,16.806 8.534,38.582c0.068,6.926 -0.312,6.841 -2.074,13.487Z" style="fill:#486324;"/><path id="BULB-TOP" serif:id="BULB TOP" d="M552.175,343.235c8.463,-1.78 8.38,-1.987 13.751,-2.642c103.583,-12.638 182.86,107.555 114.068,201.144c-28.182,38.34 -30.588,37.922 -36.8,73.034c-4.123,23.307 -14.697,19.985 -41.004,19.983c-72.288,-0.008 -73.411,0.83 -78.092,-4.291c-5.01,-5.481 -7.207,-19.53 -7.487,-21.316c-6.927,-44.284 -33.931,-52.468 -52.628,-96.639c-22.306,-52.696 -6.888,-142.834 88.193,-169.274Z" style="fill:#4a6425;"/></g></g></g></svg>