<?xml version="1.0" encoding="UTF-8" standalone="no"?><!DOCTYPE svg PUBLIC "-//W3C//DTD SVG 1.1//EN" "http://www.w3.org/Graphics/SVG/1.1/DTD/svg11.dtd"><svg width="100%" height="100%" viewBox="0 0 1157 1157" version="1.1" xmlns="http://www.w3.org/2000/svg" xmlns:xlink="http://www.w3.org/1999/xlink" xml:space="preserve" xmlns:serif="http://www.serif.com/" style="fill-rule:evenodd;clip-rule:evenodd;stroke-linejoin:round;stroke-miterlimit:2;"><g id="ANGLED_squared"><rect x="-0" y="0" width="1157" height="1157" style="fill:#4a6527;"/><path id="BG" d="M184.593,0.661c10.672,-0.265 80.165,-0.098 83.964,-0.026c3.163,0.073 3.142,0.09 3.416,0.079c9.839,-0.401 495.526,-0.301 506.097,-0.076c5.79,0.131 5.672,0.096 11.353,0.062c0.725,-0.007 5.672,-0.058 9.066,-0.096c2.275,0.032 4.551,0.064 6.826,0.097c18.894,-0.371 231.963,-0.448 246.233,-0.017c1.72,0.016 7.723,0.07 21.492,0.688c1.895,0.367 3.791,0.735 5.686,1.102c2.945,0.653 2.818,0.739 5.844,1.395l3.225,0.726c3.473,1.398 3.373,1.397 3.67,1.509c23.48,8.152 20.94,13.331 28.234,15.223c3.327,4.679 3.372,4.533 7.953,7.95c0.377,0.377 0.753,0.754 1.13,1.132c0.004,0.005 -0.332,0.279 1.704,2.75c0.808,0.981 0.578,1.008 1.35,2.079c1.218,1.691 1.257,1.536 2.552,3.182c1.125,1.418 0.575,1.663 1.636,3.084c3.434,4.597 5.856,10.289 9.426,19.704c0.373,1.133 0.747,2.265 1.12,3.398l0.796,3.184c1.87,7.734 2.242,7.84 2.853,21.694c0.822,18.643 0.344,636.83 0.302,692.206c-0.204,263.532 1.517,298.341 -4.027,308.535c-3.958,11.718 -10.117,25.459 -23.41,38.744c-16.135,16.126 -28.348,20.05 -41.927,24.152c-1.522,0.374 -3.044,0.748 -4.567,1.122c-1.905,0.326 -3.811,0.651 -5.716,0.977c-1.043,0.166 -1.61,0.596 -11.38,0.906c-25.398,0.806 -443.693,0.392 -482.275,0.354c-470.917,-0.465 -470.87,0.114 -486.853,-1.201c-2.273,-0.383 -4.546,-0.766 -6.819,-1.148c-1.096,-0.163 -2.192,-0.326 -3.287,-0.489c-0.683,-0.214 -0.557,-0.356 -1.28,-0.583c-0.274,-0.086 -0.257,-0.071 -3.464,-0.959c-2.154,-0.488 -2.046,-0.677 -4.28,-0.76c-1.055,-0.202 -2.161,-0.942 -2.332,-1.056c-6.182,-3.574 -6.354,-3.062 -12.649,-6.417c-0.279,-0.202 -0.731,-0.019 -1.01,-0.221c-11.04,-7.982 -14.735,-11.335 -15.931,-12.421c-7.69,-8.366 -7.24,-8.592 -14.603,-17.123l-0.304,-0.942c-3.385,-5.178 -3.087,-5.267 -3.392,-5.701c-4.539,-8.325 -7.692,-19.773 -8.181,-21.551c-0.39,-1.898 -0.78,-3.796 -1.17,-5.694c-0.779,-5.281 -0.823,-5.26 -0.885,-5.719c-1.862,-12.102 -1.011,-977.152 -0.493,-996.259c1.034,-4.584 2.22,-9.616 2.417,-10.451l0.76,-3.203c1.112,-3.143 1.809,-5.676 2.62,-7.08c4.905,-12.895 7.1,-15.868 15.996,-26.277c15.354,-17.966 19.889,-15.194 23.083,-19.019c0.596,-0.714 0.678,-0.812 10.461,-5.087c2.261,-0.628 2.156,-0.659 4.389,-1.511c1.142,-0.35 2.283,-0.699 3.425,-1.049l3.225,-0.711c2.962,-0.67 2.863,-0.759 5.849,-1.443l5.569,-0.703c12.571,-1.615 50.328,-0.504 96.513,-1.041Z" style="fill:#496426;fill-opacity:1;"/><g id="BUBBLE-n-BULB" serif:id="BUBBLE n BULB"><path id="BUBBLE" d="M756.457,208.097c12.532,-1.315 77.706,-8.156 156.695,-15.988c81.001,-8.031 83.217,-9.024 82.946,-6.172c-0.546,5.753 -0.999,5.641 -10.727,71.433c-61.229,414.097 -78.616,544.997 -80.558,546.552c-1.363,1.091 -346.983,-0.346 -351.371,0.687c-3.775,0.889 -109.203,95.988 -130.483,114.466c-43.384,37.673 -56.004,50.684 -57.576,49.45c-0.882,-0.692 -0.034,-146.582 -0.443,-161.866c-0.087,-3.252 -5.248,-2.253 -16.943,-2.317c-90.231,-0.489 -90.876,0.135 -91.567,-1.262c-0.157,-0.318 -9.119,-52.018 -10.079,-57.784c-3.093,-18.578 -55.351,-320.194 -61.625,-357.392c-1.572,-9.319 -20.591,-117.945 -20.719,-119.123c-0.29,-2.675 7.18,-2.778 8.162,-2.867c52.247,-4.685 52.136,-4.897 104.393,-10.198c5.536,-0.562 5.534,-0.48 69.217,-6.868c32.851,-3.295 372.73,-37.39 410.677,-40.752Z" style="fill:#cfd886;"/><g id="BULB"><path d="M519.676,678.346c-0.476,-2.766 -2.221,-12.906 -0.979,-35.067c0.073,-1.295 1.205,-6.957 5.265,-10.149c4.353,-3.422 4.882,-3.38 69.146,-3.004c39.527,0.231 48.568,-2.834 49.189,16.512c1.172,36.562 -1.522,46.941 -23.114,52.111c-2.881,0.69 -11.364,23.261 -39.689,22.541c-26.689,-0.679 -36.817,-22.04 -37.5,-22.345c-9.327,-4.163 -14.509,0.272 -22.317,-20.599Z" style="fill:#476224;"/><path d="M470.32,509.483c-34.777,-65.421 -7.68,-137.01 41.967,-168.493c122.041,-77.389 258.74,76.257 160.524,192.399c-39.433,46.631 -24.443,64.051 -34.856,76.504c-6.135,7.337 -7.828,5.889 -81.164,6.016c-26.232,0.045 -34.208,4.169 -39.194,-21.557c-8.951,-46.178 -25.962,-48.401 -47.277,-84.87Z" style="fill:#486325;"/></g></g></g></svg>