<?xml version="1.0" encoding="UTF-8" standalone="no"?><!DOCTYPE svg PUBLIC "-//W3C//DTD SVG 1.1//EN" "http://www.w3.org/Graphics/SVG/1.1/DTD/svg11.dtd"><svg width="100%" height="100%" viewBox="0 0 1142 1157" version="1.1" xmlns="http://www.w3.org/2000/svg" xmlns:xlink="http://www.w3.org/1999/xlink" xml:space="preserve" xmlns:serif="http://www.serif.com/" style="fill-rule:evenodd;clip-rule:evenodd;stroke-linejoin:round;stroke-miterlimit:2;"><g id="ROUNDED_rounded"><path id="BG" d="M91.604,0.617c8.829,-0.608 952.597,-0.686 962.318,0.001c7.979,0.622 8.035,-0.257 15.802,1.808c0.638,0.161 4.506,1.136 7.945,2.149c1.124,0.391 2.249,0.782 3.373,1.173c5.301,2.162 13.593,4.323 28.55,16.68c5.271,4.902 5.232,4.79 6.422,6.06c0.614,0.655 0.786,0.298 1.385,0.891c0.242,0.239 -0.1,0.77 0.142,1.009c9.493,10.773 8.211,11.678 9.198,12.423c1.071,0.808 2.141,1.616 7.577,14.96c2.142,6.108 2.162,5.979 3.986,12.311c5.173,24.696 2.557,25.011 3.124,609.479c0.35,360.222 0.726,360.179 -0.514,391.472c-0.248,6.26 -0.954,6.073 -1.292,12.396c-4.025,12.925 -4.043,12.892 -4.211,13.654c-4.863,7.849 -3.771,8.339 -8.788,16.022c-1.014,1.293 -7.481,10.295 -8.126,11.194c-0.363,0.397 -0.726,0.794 -1.088,1.192c-6.878,6.214 -7.417,7.157 -9.236,8.922c-12.577,9.217 -12.223,9.858 -26.825,15.494c-1.412,0.557 -1.173,0.873 -2.598,1.432c-0.576,0.142 -0.529,-0.107 -1.105,0.035c-0.533,0.131 -0.49,0.136 -6.616,1.84c-1.161,0.271 -2.323,0.543 -3.484,0.814c-2.277,0.353 -4.554,0.706 -6.83,1.059c-29.485,1.719 -967.667,1.567 -978.199,0.154c-2.218,-0.256 -4.437,-0.513 -6.655,-0.769c-1.587,-0.441 -3.173,-0.881 -4.76,-1.322c-1.428,-0.287 -2.855,-0.575 -4.283,-0.862c-10.78,-3.838 -10.854,-3.605 -20.688,-9.581c-2.665,-1.944 -11.568,-5.887 -25.876,-22.96c-5.461,-7.244 -5.238,-7.589 -6.636,-8.013l-0.248,-0.999c-0.536,-3.139 -1.919,-3.904 -6.678,-15.92c-0.395,-0.748 -0.789,-1.497 -1.184,-2.245c-0.339,-2.326 -0.347,-2.263 -1.081,-4.54l-0.697,-3.238c-0.308,-1.535 -0.616,-3.07 -0.924,-4.605c-2.84,-17.025 -1.836,-17.137 -2.049,-633.254c-0.104,-301.283 -0.545,-356.756 1.087,-366.55c0.118,-1.096 1.012,-9.406 2.696,-13.514c0.149,-0.463 1.093,-3.394 1.944,-5.766c8.554,-21.5 16.376,-32.133 39.794,-48.69c1.129,-0.798 1.491,0.015 15.798,-7.013c3.503,-0.35 3.352,-0.743 6.704,-1.552c2.385,-0.644 2.245,-0.697 4.744,-1.363l5.558,-0.753c5.557,-0.563 5.478,-0.721 12.523,-1.115Z" style="fill:#496325;fill-opacity:1;"/><g id="BUBBLE-n-BULB" serif:id="BUBBLE n BULB"><path id="BUBBLE" d="M242.547,266.517c10.709,-4.674 22.61,-9.72 45.385,-10.119c9.372,-0.164 558.182,-0.184 567.382,-0.083c52.195,0.575 111.205,42.102 111.025,117.994c-0.039,16.462 0.105,331.207 0.03,334.752c-1.377,65.633 -50.557,104.55 -98.573,111.209c-15.746,2.184 -367.892,0.194 -382.414,1.165c-3.381,0.226 -36.264,30.923 -133.075,115.349c-37.718,32.893 -37.932,33.619 -38.951,32.852c-0.271,-0.204 -0.853,-0.31 -0.474,-145.96c0.01,-4.026 -7.215,-2.542 -14.738,-2.479c-6.418,0.054 -49.255,0.412 -76.933,-22.763c-16.405,-13.735 -43.65,-38.671 -45.456,-89.374c-0.264,-7.418 -0.119,-285.004 -0.106,-309.787c0.017,-33.107 -6.041,-96.229 66.898,-132.756Z" style="fill:#ccd688;"/><g id="BULB"><path id="BULB-BOTTOM" serif:id="BULB BOTTOM" d="M629.152,703.253c-7.94,15.001 -11.903,11.483 -23.665,23.788c-13.327,13.942 -55.223,16.391 -72.123,-3.498c-7.448,-8.766 -21.763,-9.049 -22.059,-33.765c-0.329,-27.411 -1.522,-39.425 16.06,-39.454c87.853,-0.141 88.044,-1.405 95.327,0.859c10.244,3.185 8.321,16.806 8.534,38.582c0.068,6.926 -0.312,6.841 -2.074,13.487Z" style="fill:#486324;"/><path id="BULB-TOP" serif:id="BULB TOP" d="M543.175,342.235c8.463,-1.78 8.38,-1.987 13.751,-2.642c103.583,-12.638 182.86,107.555 114.068,201.144c-28.182,38.34 -30.588,37.922 -36.8,73.034c-4.123,23.307 -14.697,19.985 -41.004,19.983c-72.288,-0.008 -73.411,0.83 -78.092,-4.291c-5.01,-5.481 -7.207,-19.53 -7.487,-21.316c-6.927,-44.284 -33.931,-52.468 -52.628,-96.639c-22.306,-52.696 -6.888,-142.834 88.193,-169.274Z" style="fill:#4a6425;"/></g></g></g></svg>