<?xml version="1.0" encoding="UTF-8" standalone="no"?>
<!DOCTYPE svg PUBLIC "-//W3C//DTD SVG 1.1//EN" "http://www.w3.org/Graphics/SVG/1.1/DTD/svg11.dtd">
<svg width="100%" height="100%" viewBox="0 0 1157 1157" version="1.1" xmlns="http://www.w3.org/2000/svg" xmlns:xlink="http://www.w3.org/1999/xlink" xml:space="preserve" xmlns:serif="http://www.serif.com/" style="fill-rule:evenodd;clip-rule:evenodd;stroke-linejoin:round;stroke-miterlimit:2;">
    <g transform="matrix(1,0,0,1,-169,-195)">
        <g id="ANGLED" transform="matrix(1.134766,0,0,1.134766,176,192)">
            <g transform="matrix(0.846839,0,0,0.846839,-121.338739,-90.50854)">
                <rect x="136" y="110" width="1204" height="1204" style="fill:rgb(74,101,39);"/>
            </g>
            <path id="BG" d="M156.502,3.226C165.907,2.992 227.146,3.14 230.494,3.204C233.281,3.268 233.263,3.283 233.504,3.273C242.174,2.92 670.181,3.008 679.496,3.206C684.598,3.321 684.494,3.291 689.5,3.261C690.14,3.255 694.499,3.21 697.49,3.177C699.495,3.205 701.5,3.234 703.505,3.262C720.155,2.935 907.92,2.867 920.496,3.247C922.012,3.261 927.302,3.309 939.435,3.853C941.105,4.177 942.776,4.501 944.446,4.825C947.041,5.4 946.929,5.476 949.596,6.054L952.438,6.694C955.499,7.926 955.41,7.925 955.672,8.024C976.364,15.207 974.125,19.771 980.553,21.439C983.485,25.562 983.524,25.433 987.562,28.444C987.894,28.777 988.225,29.109 988.557,29.442C988.561,29.446 988.264,29.688 990.059,31.865C990.772,32.729 990.569,32.753 991.249,33.697C992.322,35.187 992.356,35.051 993.498,36.501C994.489,37.751 994.004,37.967 994.939,39.219C997.965,43.27 1000.1,48.286 1003.246,56.583C1003.575,57.581 1003.904,58.579 1004.233,59.577L1004.935,62.384C1006.583,69.199 1006.911,69.293 1007.449,81.501C1008.173,97.93 1007.753,642.701 1007.715,691.5C1007.536,923.736 1009.051,954.41 1004.166,963.394C1000.678,973.72 995.251,985.829 983.537,997.537C969.318,1011.748 958.555,1015.205 946.589,1018.821C945.248,1019.15 943.907,1019.48 942.565,1019.809C940.886,1020.096 939.207,1020.383 937.528,1020.67C936.609,1020.816 936.109,1021.195 927.499,1021.468C905.117,1022.178 536.499,1021.814 502.499,1021.781C87.509,1021.37 87.55,1021.881 73.465,1020.722C71.462,1020.385 69.459,1020.048 67.456,1019.71C66.491,1019.567 65.525,1019.423 64.559,1019.28C63.958,1019.091 64.069,1018.966 63.432,1018.766C63.19,1018.69 63.205,1018.704 60.379,1017.921C58.481,1017.491 58.576,1017.325 56.608,1017.251C55.678,1017.073 54.703,1016.421 54.553,1016.32C49.105,1013.171 48.953,1013.622 43.406,1010.665C43.16,1010.487 42.762,1010.648 42.516,1010.47C32.788,1003.436 29.531,1000.482 28.477,999.525C21.7,992.152 22.097,991.953 15.608,984.435L15.34,983.605C12.357,979.042 12.619,978.964 12.351,978.581C8.351,971.245 5.573,961.156 5.141,959.59C4.798,957.917 4.454,956.244 4.11,954.572C3.424,949.918 3.385,949.937 3.33,949.532C1.689,938.867 2.44,88.427 2.896,71.59C3.807,67.55 4.853,63.116 5.026,62.38L5.696,59.556C6.676,56.786 7.291,54.554 8.005,53.317C12.327,41.954 14.262,39.333 22.101,30.161C35.631,14.328 39.628,16.771 42.442,13.4C42.968,12.77 43.039,12.684 51.66,8.917C53.653,8.364 53.56,8.336 55.528,7.586C56.534,7.278 57.541,6.97 58.547,6.661L61.389,6.035C63.999,5.445 63.912,5.366 66.543,4.764L71.451,4.144C82.529,2.72 115.802,3.7 156.502,3.226Z" style="fill:rgb(73,100,38);fill-opacity:1;"/>
            <g id="BUBBLE-n-BULB" serif:id="BUBBLE n BULB">
                <path id="BUBBLE" d="M660.451,186.027C671.495,184.868 728.928,178.839 798.537,171.938C869.919,164.86 871.871,163.985 871.633,166.499C871.151,171.569 870.752,171.47 862.179,229.449C808.222,594.367 792.9,709.722 791.189,711.091C789.987,712.053 485.413,710.787 481.546,711.697C478.22,712.481 385.312,796.285 366.559,812.57C328.327,845.769 317.206,857.234 315.821,856.147C315.044,855.538 315.791,726.973 315.431,713.505C315.354,710.639 310.806,711.519 300.5,711.463C220.985,711.032 220.417,711.582 219.808,710.351C219.669,710.071 211.772,664.511 210.926,659.429C208.2,643.058 162.148,377.262 156.62,344.481C155.235,336.269 138.474,240.543 138.361,239.505C138.106,237.148 144.689,237.057 145.554,236.979C191.596,232.85 191.499,232.663 237.55,227.992C242.428,227.497 242.426,227.569 298.546,221.939C327.495,219.035 627.011,188.99 660.451,186.027Z" style="fill:rgb(207,216,134);"/>
                <g id="BULB">
                    <path d="M451.79,600.429C451.37,597.992 449.832,589.056 450.927,569.527C450.991,568.385 451.988,563.396 455.566,560.583C459.402,557.567 459.868,557.604 516.5,557.936C551.333,558.14 559.3,555.438 559.847,572.487C560.88,604.707 558.506,613.853 539.478,618.409C536.939,619.017 529.464,638.908 504.503,638.273C480.983,637.675 472.058,618.85 471.456,618.582C463.237,614.913 458.67,618.821 451.79,600.429Z" style="fill:rgb(71,98,36);"/>
                    <path d="M408.296,451.62C377.649,393.968 401.528,330.881 445.279,303.137C552.827,234.939 673.291,370.338 586.739,472.687C551.989,513.78 565.199,529.131 556.023,540.106C550.617,546.572 549.125,545.296 484.498,545.407C461.381,545.447 454.353,549.08 449.958,526.41C442.07,485.716 427.08,483.757 408.296,451.62Z" style="fill:rgb(72,99,37);"/>
                </g>
            </g>
        </g>
    </g>
</svg>
