<?xml version="1.0" encoding="UTF-8" standalone="no"?>
<!DOCTYPE svg PUBLIC "-//W3C//DTD SVG 1.1//EN" "http://www.w3.org/Graphics/SVG/1.1/DTD/svg11.dtd">
<svg width="100%" height="100%" viewBox="0 0 1157 1157" version="1.1" xmlns="http://www.w3.org/2000/svg" xmlns:xlink="http://www.w3.org/1999/xlink" xml:space="preserve" xmlns:serif="http://www.serif.com/" style="fill-rule:evenodd;clip-rule:evenodd;stroke-linejoin:round;stroke-miterlimit:2;">
    <g transform="matrix(1,0,0,1,-169,-1665)">
        <g id="ROUNDED" transform="matrix(1.134766,0,0,1.134766,176,1663)">
            <g transform="matrix(0.846839,0,0,0.846839,-121.338739,-91.389779)">
                <rect x="136" y="110" width="1204" height="1204" style="fill:rgb(74,101,39);"/>
            </g>
            <g id="BUBBLE-n-BULB" serif:id="BUBBLE n BULB">
                <path id="BUBBLE" d="M215.505,237.509C224.942,233.39 235.43,228.944 255.5,228.592C263.759,228.448 747.392,228.43 755.499,228.519C801.496,229.026 853.497,265.621 853.339,332.5C853.305,347.007 853.431,624.373 853.366,627.497C852.153,685.335 808.813,719.63 766.5,725.499C752.624,727.423 442.299,725.67 429.501,726.525C426.522,726.724 397.544,753.776 312.231,828.175C278.992,857.161 278.804,857.801 277.905,857.125C277.667,856.946 277.153,856.852 277.487,728.5C277.497,724.952 271.129,726.26 264.5,726.315C258.844,726.362 221.095,726.678 196.703,706.256C182.247,694.152 158.237,672.178 156.646,627.496C156.413,620.959 156.54,376.339 156.552,354.499C156.567,325.324 151.228,269.698 215.505,237.509Z" style="fill:rgb(204,214,136);"/>
                <g id="BULB">
                    <path id="BULB-BOTTOM" serif:id="BULB BOTTOM" d="M556.196,622.377C549.199,635.597 545.706,632.497 535.341,643.34C523.597,655.627 486.676,657.784 471.784,640.258C465.221,632.533 452.606,632.283 452.345,610.502C452.055,586.347 451.003,575.759 466.498,575.734C543.917,575.61 544.086,574.496 550.503,576.492C559.531,579.298 557.836,591.302 558.024,610.492C558.084,616.596 557.749,616.52 556.196,622.377Z" style="fill:rgb(72,99,36);"/>
                    <path id="BULB-TOP" serif:id="BULB TOP" d="M480.429,304.234C487.887,302.666 487.814,302.484 492.547,301.906C583.829,290.769 653.691,396.688 593.068,479.162C568.233,512.949 566.113,512.581 560.639,543.523C557.005,564.062 547.687,561.135 524.504,561.133C460.801,561.126 459.811,561.864 455.686,557.351C451.271,552.521 449.334,540.14 449.088,538.567C442.984,499.542 419.187,492.33 402.71,453.405C383.053,406.967 396.641,327.534 480.429,304.234Z" style="fill:rgb(74,100,37);"/>
                </g>
            </g>
        </g>
    </g>
</svg>
